<svg width="29" height="29" viewBox="0 0 29 29" fill="none" xmlns="http://www.w3.org/2000/svg">
<path d="M7.9479 18.7069C6.23839 19.7248 1.75615 21.8033 4.48613 24.4041C5.81971 25.6746 7.30497 26.5833 9.1723 26.5833H19.8277C21.695 26.5833 23.1803 25.6746 24.5139 24.4041C27.2439 21.8033 22.7616 19.7248 21.0521 18.7069C17.0433 16.3199 11.9567 16.3199 7.9479 18.7069Z" stroke="#9E9E9E" stroke-width="1.5" stroke-linecap="round" stroke-linejoin="round"/>
<path d="M19.9375 7.85413C19.9375 10.8572 17.503 13.2916 14.5 13.2916C11.497 13.2916 9.0625 10.8572 9.0625 7.85413C9.0625 4.85108 11.497 2.41663 14.5 2.41663C17.503 2.41663 19.9375 4.85108 19.9375 7.85413Z" stroke="#9E9E9E" stroke-width="1.5"/>
</svg>
