<svg width="30" height="30" viewBox="0 0 30 30" fill="none" xmlns="http://www.w3.org/2000/svg">
<path d="M3.75 13.75C3.75 9.06283 3.75 6.71925 4.94364 5.07634C5.32914 4.54575 5.79575 4.07914 6.32634 3.69364C7.96925 2.5 10.3128 2.5 15 2.5C19.6872 2.5 22.0307 2.5 23.6737 3.69364C24.2042 4.07914 24.6709 4.54575 25.0564 5.07634C26.25 6.71925 26.25 9.06283 26.25 13.75V16.25C26.25 20.9372 26.25 23.2807 25.0564 24.9237C24.6709 25.4543 24.2042 25.9209 23.6737 26.3064C22.0307 27.5 19.6872 27.5 15 27.5C10.3128 27.5 7.96925 27.5 6.32634 26.3064C5.79575 25.9209 5.32914 25.4543 4.94364 24.9237C3.75 23.2807 3.75 20.9372 3.75 16.25V13.75Z" stroke="#9E9E9E" stroke-width="1.5" stroke-linecap="round" stroke-linejoin="round"/>
<path d="M18.75 11.875L8.75 11.875M12.5 18.125H8.75" stroke="#9E9E9E" stroke-width="1.5" stroke-linecap="round" stroke-linejoin="round"/>
</svg>
