<svg width="22" height="21" viewBox="0 0 22 21" fill="none" xmlns="http://www.w3.org/2000/svg">
<path d="M4.74174 2.59766L4.89298 3.33225L4.74174 2.59766ZM13.3424 0.826926L13.4937 1.56152L13.3424 0.826926ZM4.75 14.6695C4.33579 14.6695 4 15.0053 4 15.4195C4 15.8337 4.33579 16.1695 4.75 16.1695V15.4195V14.6695ZM10.75 16.1695C11.1642 16.1695 11.5 15.8337 11.5 15.4195C11.5 15.0053 11.1642 14.6695 10.75 14.6695V15.4195V16.1695ZM20.75 9.41949H21.5V8.66949H20.75V9.41949ZM20.75 14.4195V15.1695H21.5V14.4195H20.75ZM16.25 11.1695C15.8358 11.1695 15.5 11.5053 15.5 11.9195C15.5 12.3337 15.8358 12.6695 16.25 12.6695V11.9195V11.1695ZM16.45 12.6695C16.8642 12.6695 17.2 12.3337 17.2 11.9195C17.2 11.5053 16.8642 11.1695 16.45 11.1695V11.9195V12.6695ZM5.75 3.91949V4.66949H15.75V3.91949V3.16949H5.75V3.91949ZM20.75 8.91949H20V14.9195H20.75H21.5V8.91949H20.75ZM15.75 19.9195V19.1695H5.75V19.9195V20.6695H15.75V19.9195ZM0.75 14.9195H1.5V8.91949H0.75H0V14.9195H0.75ZM5.75 19.9195V19.1695C3.40279 19.1695 1.5 17.2667 1.5 14.9195H0.75H0C0 18.0951 2.57436 20.6695 5.75 20.6695V19.9195ZM20.75 14.9195H20C20 17.2667 18.0972 19.1695 15.75 19.1695V19.9195V20.6695C18.9256 20.6695 21.5 18.0951 21.5 14.9195H20.75ZM15.75 3.91949V4.66949C18.0972 4.66949 20 6.57228 20 8.91949H20.75H21.5C21.5 5.74385 18.9256 3.16949 15.75 3.16949V3.91949ZM5.75 3.91949V3.16949C2.57436 3.16949 0 5.74385 0 8.91949H0.75H1.5C1.5 6.57228 3.40279 4.66949 5.75 4.66949V3.91949ZM4.74174 2.59766L4.89298 3.33225L13.4937 1.56152L13.3424 0.826926L13.1912 0.0923333L4.5905 1.86307L4.74174 2.59766ZM0.75 10.9195H1.5V7.49495H0.75H0V10.9195H0.75ZM13.3424 0.826926L13.4937 1.56152C15.3038 1.18885 17 2.57142 17 4.41949H17.75H18.5C18.5 1.62139 15.9318 -0.471911 13.1912 0.0923333L13.3424 0.826926ZM4.74174 2.59766L4.5905 1.86307C1.91784 2.41332 0 4.76624 0 7.49495H0.75H1.5C1.5 5.47807 2.91754 3.73896 4.89298 3.33225L4.74174 2.59766ZM4.75 15.4195V16.1695H10.75V15.4195V14.6695H4.75V15.4195ZM16.25 9.41949V10.1695H20.75V9.41949V8.66949H16.25V9.41949ZM20.75 9.41949H20V14.4195H20.75H21.5V9.41949H20.75ZM20.75 14.4195V13.6695H16.25V14.4195V15.1695H20.75V14.4195ZM16.25 14.4195V13.6695C15.2835 13.6695 14.5 12.886 14.5 11.9195H13.75H13C13 13.7144 14.4551 15.1695 16.25 15.1695V14.4195ZM16.25 9.41949V8.66949C14.4551 8.66949 13 10.1246 13 11.9195H13.75H14.5C14.5 10.953 15.2835 10.1695 16.25 10.1695V9.41949ZM16.25 11.9195V12.6695H16.45V11.9195V11.1695H16.25V11.9195Z" fill="#0D0D0F"/>
</svg>
